<?xml version="1.0" encoding="UTF-8"?>
<svg version="1.1" xmlns="http://www.w3.org/2000/svg" width="512" height="512">
<path d="M0 0 C1.12255198 -0.00445784 2.24510396 -0.00891569 3.40167266 -0.01350862 C5.26714627 -0.01323207 5.26714627 -0.01323207 7.17030621 -0.01294994 C9.13993353 -0.01846498 9.13993353 -0.01846498 11.1493513 -0.02409142 C14.80648782 -0.03412854 18.46360792 -0.03783095 22.12075627 -0.04048073 C26.06019264 -0.04437869 29.99961595 -0.05395733 33.939044 -0.0626936 C43.45852072 -0.08247177 52.97799853 -0.09252564 62.49749067 -0.10142139 C66.97724304 -0.10580182 71.45699422 -0.11116924 75.93674564 -0.11641026 C90.82284106 -0.13342341 105.70893572 -0.14791866 120.59503937 -0.155159 C124.45953974 -0.15706898 128.32404011 -0.1589893 132.18854046 -0.16094494 C133.14907586 -0.16142868 134.10961126 -0.16191242 135.0992538 -0.16241082 C150.66718128 -0.17071514 166.23503202 -0.19605844 181.80292598 -0.22852562 C197.77574028 -0.26156649 213.74851554 -0.27960504 229.7213642 -0.28280324 C238.69378141 -0.28497103 247.66608669 -0.29375894 256.63847065 -0.31926441 C264.27810767 -0.34093083 271.91760559 -0.3490419 279.55726985 -0.33929763 C283.45665002 -0.33474116 287.35574294 -0.33671678 291.25508404 -0.35605907 C295.47922596 -0.37683199 299.70272596 -0.36674348 303.926898 -0.35352612 C305.16385491 -0.36449536 306.40081181 -0.37546461 307.67525226 -0.38676625 C308.80562748 -0.37818536 309.9360027 -0.36960447 311.10063171 -0.36076355 C312.07580854 -0.36174036 313.05098536 -0.36271717 314.055713 -0.36372358 C317.51675054 0.27853173 319.2102393 1.73815091 321.73907757 4.13422108 C323.16770172 6.99146938 322.86994463 9.41747903 322.87609196 12.61329842 C322.87874378 13.2894576 322.88139561 13.96561678 322.8841278 14.66226563 C322.8918475 16.95040129 322.89238098 19.23848352 322.89297771 21.52663136 C322.89699057 23.17471521 322.90142849 24.82279807 322.90625727 26.47087973 C322.91824817 31.01733678 322.92387702 35.5637832 322.92843843 40.11025298 C322.93438492 45.00675349 322.94599704 49.90324124 322.95672894 54.79973316 C322.98127347 66.6329102 322.99588239 78.46609148 323.008789 90.29928616 C323.01249921 93.63947811 323.01647258 96.97966964 323.02054167 100.31986117 C323.04577465 121.04656801 323.06783532 141.77327547 323.08026981 162.49999428 C323.08319968 167.30295597 323.08616132 172.10591764 323.08917522 176.90887928 C323.08992127 178.10268263 323.09066733 179.29648599 323.09143598 180.5264652 C323.10409709 199.87731879 323.13732922 219.22808064 323.17897706 238.57889131 C323.22135254 258.42990724 323.24495971 278.28087615 323.25019038 298.13193721 C323.25360931 309.28413146 323.26542124 320.43618233 323.29829311 331.58833218 C323.32623445 341.08348542 323.337319 350.5784659 323.32609765 360.07365707 C323.32089596 364.92089128 323.32389543 369.76776335 323.34856319 374.61494541 C323.37094368 379.04956215 323.37040377 383.48355429 323.35135932 387.91818114 C323.3485435 389.52520685 323.35424503 391.13227391 323.36917226 392.73923276 C323.38819159 394.91946216 323.37655266 397.0974442 323.35711002 399.27762032 C323.35846655 400.48974263 323.35982308 401.70186494 323.36122072 402.95071822 C322.56129274 407.04394502 320.90904656 408.51874571 317.73907757 411.13422108 C315.01429605 412.49661184 312.87066901 412.25392065 309.82062054 412.24774647 C308.57948498 412.24767094 307.33834942 412.24759541 306.05960369 412.24751759 C304.70015708 412.24241058 303.34071087 412.23719458 301.98126507 412.23187733 C300.59406873 412.2300125 299.20687173 412.2285889 297.81967449 412.22758961 C294.16673245 412.22376955 290.51383009 412.21394363 286.86090374 412.20288563 C283.13410256 412.19266051 279.40729498 412.18808963 275.68048382 412.1830492 C268.36666363 412.17232091 261.05287616 412.15525062 253.73907757 412.13422108 C253.74796001 412.96027851 253.75684246 413.78633595 253.76599407 414.63742542 C253.84625423 422.43505511 253.90709986 430.2325454 253.94632626 438.03049374 C253.96717127 442.0392076 253.99543163 446.04757918 254.04083538 450.05609608 C254.08440456 453.92701916 254.10823788 457.79761373 254.11858654 461.66876316 C254.12595817 463.14313266 254.14035349 464.61748486 254.1619978 466.09171391 C254.19118114 468.16242567 254.19502767 470.23179268 254.19317913 472.30267811 C254.20206158 473.47960224 254.21094402 474.65652637 254.22009563 475.86911488 C253.63484497 479.84174235 252.22016932 482.01539535 249.73907757 485.13422108 C247.16930163 486.41910904 245.34137183 486.26437309 242.46253777 486.27123547 C241.33650239 486.27631001 240.21046702 486.28138455 239.05030936 486.28661287 C237.17899933 486.2873595 237.17899933 486.2873595 235.26988506 486.28812122 C233.95271663 486.29250348 232.6355482 486.29688573 231.27846557 486.30140078 C227.60992987 486.31338607 223.94140733 486.31901924 220.27285588 486.32358193 C216.32114777 486.32953055 212.36945546 486.34114216 208.41775799 486.35187244 C198.86862194 486.37641222 189.31948065 486.39102527 179.77032277 486.40393251 C177.07454748 486.40764309 174.37877271 486.41161642 171.68299794 486.41568518 C154.95265862 486.44091871 138.2223185 486.46297792 121.49196434 486.47541332 C117.61543239 486.47834315 113.73890047 486.4813048 109.86236858 486.48431873 C108.89884257 486.48506478 107.93531655 486.48581083 106.94259278 486.48657949 C91.32614747 486.49923925 75.70981587 486.53246981 60.09342375 486.57412057 C44.07088968 486.6165053 28.04841389 486.64010429 12.02582389 486.64533389 C3.0254318 486.64875179 -5.97478257 486.66055152 -14.97511959 486.69343662 C-22.6385636 486.72139072 -30.30179346 486.73245694 -37.9652845 486.72124116 C-41.87687867 486.71604265 -45.78802407 486.71901774 -49.69955349 486.7437067 C-53.27932355 486.76611354 -56.85832027 486.76552738 -60.4381031 486.74650283 C-62.34908042 486.74235665 -64.26006178 486.76291179 -66.17092401 486.78428972 C-75.41872484 486.6980645 -75.41872484 486.6980645 -78.5015564 483.72122097 C-80.77113926 480.38399011 -81.38741658 478.92576761 -81.19846916 474.96625805 C-81.15954129 474.08706184 -81.12061341 473.20786563 -81.08050591 472.30202711 C-81.03237139 471.32975506 -80.98423688 470.35748301 -80.93464375 469.35574818 C-80.83919619 467.21430956 -80.74399458 465.07285997 -80.64899921 462.93140125 C-80.5960375 461.77847836 -80.54307579 460.62555546 -80.48850918 459.4376955 C-79.68553302 441.79275316 -79.01021262 424.14752633 -78.59159565 406.48935413 C-78.56577562 405.40170649 -78.56577562 405.40170649 -78.53943396 404.29208617 C-78.36281057 396.77745143 -78.20009251 389.26258285 -78.05011839 381.74737062 C-77.9724844 377.88000164 -77.89153157 374.01270887 -77.80852985 370.14545155 C-77.783838 368.99119413 -77.783838 368.99119413 -77.75864732 367.81361838 C-77.52158082 357.03824448 -77.11511272 346.28105472 -76.57146172 335.51696947 C-75.63473281 316.96144258 -75.02834923 298.42618407 -75.04607868 279.84515858 C-75.04615219 279.12419542 -75.04622569 278.40323226 -75.04630142 277.66042173 C-75.10350672 239.35873914 -79.83001165 209.00478676 -108.02689838 180.56210804 C-119.47534057 169.48581268 -131.80966901 159.393577 -144.8183732 150.21058559 C-153.2313289 144.26550152 -161.08059672 137.78874608 -163.26092243 127.13422108 C-164.05058472 118.27347563 -164.20924427 109.85051045 -159.26092243 102.13422108 C-158.84842243 101.43941639 -158.43592243 100.7446117 -158.01092243 100.02875233 C-153.54062666 93.25981014 -146.91847007 88.96529757 -139.13592243 86.75922108 C-130.29307682 85.33295566 -122.39516146 86.10301432 -114.26092243 90.13422108 C-106.4760552 96.27716737 -99.61104996 103.66024576 -92.63592243 110.69672108 C-91.62183797 111.71583862 -90.60751618 112.73472006 -89.59295368 113.7533617 C-87.14621408 116.21094519 -84.702657 118.67166353 -82.26092243 121.13422108 C-82.24633991 119.97897938 -82.23175739 118.82373768 -82.21673298 117.63348866 C-82.15865421 113.33744195 -82.08142193 109.04191414 -81.99847126 104.74628162 C-81.96526694 102.88894557 -81.93722102 101.03150971 -81.91448689 99.174016 C-81.88085802 96.5001631 -81.82853869 93.82722115 -81.77264118 91.15375233 C-81.76625126 90.32648136 -81.75986134 89.4992104 -81.75327778 88.64687061 C-81.63622081 84.03162191 -81.34306963 80.81056805 -78.26092243 77.13422108 C-74.40328245 74.3341603 -71.73442237 73.76472922 -67.00188923 73.79364491 C-65.14052578 73.79398479 -65.14052578 73.79398479 -63.24155903 73.79433155 C-61.89774936 73.80964896 -60.55394343 73.82529691 -59.21014118 73.84125233 C-57.82723673 73.8468521 -56.44432631 73.8511204 -55.06141376 73.85411549 C-51.43302512 73.86553444 -47.80500044 73.89497558 -44.17675495 73.92822742 C-40.46983481 73.95899235 -36.76285549 73.97263449 -33.05584431 73.9877367 C-25.79070496 74.01984866 -18.52586482 74.07100861 -11.26092243 74.13422108 C-11.26980488 73.29341496 -11.27868732 72.45260883 -11.28783894 71.58632374 C-11.36804361 63.65593612 -11.42891661 55.72568505 -11.46817112 47.79498482 C-11.48903095 43.71786453 -11.51731862 39.64107986 -11.56268024 35.56415272 C-11.60619625 31.62839626 -11.63007161 27.69296226 -11.6404314 23.75698376 C-11.64781254 22.25666892 -11.66222646 20.75637139 -11.68384266 19.25619411 C-11.71295505 17.15175576 -11.71687545 15.04864341 -11.71502399 12.94403553 C-11.72390644 11.74712589 -11.73278889 10.55021626 -11.7419405 9.31703663 C-11.16495875 5.49924556 -9.93784198 3.8625539 -7.26092243 1.13422108 C-4.69437595 -0.14905216 -2.87513089 0.00527591 0 0 Z " fill="#FFCD00" transform="translate(176.2609224319458,12.865778923034668)"/>
<path d="M0 0 C1.12255198 -0.00445784 2.24510396 -0.00891569 3.40167266 -0.01350862 C5.26714627 -0.01323207 5.26714627 -0.01323207 7.17030621 -0.01294994 C9.13993353 -0.01846498 9.13993353 -0.01846498 11.1493513 -0.02409142 C14.80648782 -0.03412854 18.46360792 -0.03783095 22.12075627 -0.04048073 C26.06019264 -0.04437869 29.99961595 -0.05395733 33.939044 -0.0626936 C43.45852072 -0.08247177 52.97799853 -0.09252564 62.49749067 -0.10142139 C66.97724304 -0.10580182 71.45699422 -0.11116924 75.93674564 -0.11641026 C90.82284106 -0.13342341 105.70893572 -0.14791866 120.59503937 -0.155159 C124.45953974 -0.15706898 128.32404011 -0.1589893 132.18854046 -0.16094494 C133.14907586 -0.16142868 134.10961126 -0.16191242 135.0992538 -0.16241082 C150.66718128 -0.17071514 166.23503202 -0.19605844 181.80292598 -0.22852562 C197.77574028 -0.26156649 213.74851554 -0.27960504 229.7213642 -0.28280324 C238.69378141 -0.28497103 247.66608669 -0.29375894 256.63847065 -0.31926441 C264.27810767 -0.34093083 271.91760559 -0.3490419 279.55726985 -0.33929763 C283.45665002 -0.33474116 287.35574294 -0.33671678 291.25508404 -0.35605907 C295.47922596 -0.37683199 299.70272596 -0.36674348 303.926898 -0.35352612 C305.16385491 -0.36449536 306.40081181 -0.37546461 307.67525226 -0.38676625 C308.80562748 -0.37818536 309.9360027 -0.36960447 311.10063171 -0.36076355 C312.07580854 -0.36174036 313.05098536 -0.36271717 314.055713 -0.36372358 C317.51675054 0.27853173 319.2102393 1.73815091 321.73907757 4.13422108 C323.16770172 6.99146938 322.86994463 9.41747903 322.87609196 12.61329842 C322.87874378 13.2894576 322.88139561 13.96561678 322.8841278 14.66226563 C322.8918475 16.95040129 322.89238098 19.23848352 322.89297771 21.52663136 C322.89699057 23.17471521 322.90142849 24.82279807 322.90625727 26.47087973 C322.91824817 31.01733678 322.92387702 35.5637832 322.92843843 40.11025298 C322.93438492 45.00675349 322.94599704 49.90324124 322.95672894 54.79973316 C322.98127347 66.6329102 322.99588239 78.46609148 323.008789 90.29928616 C323.01249921 93.63947811 323.01647258 96.97966964 323.02054167 100.31986117 C323.04577465 121.04656801 323.06783532 141.77327547 323.08026981 162.49999428 C323.08319968 167.30295597 323.08616132 172.10591764 323.08917522 176.90887928 C323.08992127 178.10268263 323.09066733 179.29648599 323.09143598 180.5264652 C323.10409709 199.87731879 323.13732922 219.22808064 323.17897706 238.57889131 C323.22135254 258.42990724 323.24495971 278.28087615 323.25019038 298.13193721 C323.25360931 309.28413146 323.26542124 320.43618233 323.29829311 331.58833218 C323.32623445 341.08348542 323.337319 350.5784659 323.32609765 360.07365707 C323.32089596 364.92089128 323.32389543 369.76776335 323.34856319 374.61494541 C323.37094368 379.04956215 323.37040377 383.48355429 323.35135932 387.91818114 C323.3485435 389.52520685 323.35424503 391.13227391 323.36917226 392.73923276 C323.38819159 394.91946216 323.37655266 397.0974442 323.35711002 399.27762032 C323.35846655 400.48974263 323.35982308 401.70186494 323.36122072 402.95071822 C322.56129274 407.04394502 320.90904656 408.51874571 317.73907757 411.13422108 C314.99242368 412.50754802 312.80283689 412.25387 309.72882366 412.24774647 C308.46766735 412.24767094 307.20651104 412.24759541 305.90713787 412.24751759 C304.52559654 412.24241057 303.14405561 412.23719457 301.76251507 412.23187733 C300.35289847 412.23001251 298.94328123 412.22858891 297.53366375 412.22758961 C293.82153824 412.22376941 290.10945179 412.21394336 286.39734173 412.20288563 C282.61021738 412.19266083 278.82308673 412.18808969 275.03595257 412.1830492 C267.60364309 412.17232065 260.1713658 412.15525019 252.73907757 412.13422108 C252.77632631 411.21287561 252.81357506 410.29153015 252.85195255 409.34226513 C253.75675249 386.68925129 254.38187943 364.04080354 254.73128605 341.37226391 C254.90646607 330.4067951 255.16617743 319.45654719 255.63653851 308.49945545 C260.0764152 253.65032376 260.0764152 253.65032376 238.5376482 205.67069149 C229.52616424 196.09552641 219.10314006 188.17289344 208.2059164 180.87359905 C202.51567002 176.86138347 197.50047876 172.02146643 192.58282757 167.11078358 C191.70626507 166.23551014 190.82970257 165.3602367 189.92657757 164.45843983 C189.03970257 163.56769764 188.15282757 162.67695545 187.23907757 161.75922108 C185.86235882 160.38830311 185.86235882 160.38830311 184.45782757 158.98968983 C183.59157757 158.12215076 182.72532757 157.2546117 181.83282757 156.36078358 C181.04585491 155.57268299 180.25888226 154.78458241 179.44806194 153.97259998 C177.73907757 152.13422108 177.73907757 152.13422108 177.73907757 151.13422108 C201.82907757 150.80422108 225.91907757 150.47422108 250.73907757 150.13422108 C241.39323351 140.66249479 241.39323351 140.66249479 231.69610882 131.87250233 C228.37001546 128.91818787 225.30202615 125.70403489 222.17657757 122.54047108 C220.08907122 120.47972763 217.96738534 118.53906482 215.73907757 116.63422108 C211.66284538 113.14970001 207.94356884 109.35340126 204.17657757 105.54047108 C202.08907122 103.47972763 199.96738534 101.53906482 197.73907757 99.63422108 C193.67263632 96.15806969 189.96161887 92.37183223 186.20392132 88.56781483 C183.38276073 85.78242173 180.45061016 83.17303896 177.43048382 80.60687733 C175.73907757 79.13422108 175.73907757 79.13422108 174.59249687 77.56710052 C171.76476125 75.38097661 168.82310931 75.71198123 165.39296246 75.73549366 C164.63902555 75.72884683 163.88508864 75.72220001 163.10830516 75.71535176 C160.57469281 75.69665627 158.04154999 75.69933138 155.5078764 75.70184803 C153.69464224 75.69283485 151.8814142 75.68250873 150.06819439 75.67096424 C145.13876123 75.64331591 140.20944343 75.63409911 135.27994275 75.62811017 C130.13091353 75.61874684 124.98197117 75.59254517 119.83299541 75.56810474 C110.07955509 75.52437975 100.32613157 75.49586967 90.57262295 75.47278136 C79.46993367 75.44576181 68.36733151 75.40184834 57.26470435 75.35649264 C34.42287594 75.26356045 11.58102021 75.19191901 -11.26092243 75.13422108 C-11.35366818 66.22416222 -11.4247103 57.31426993 -11.46817112 48.40383339 C-11.48903191 44.26618156 -11.51732141 40.12886036 -11.56268024 35.99139881 C-11.60619271 31.99728815 -11.63007089 28.00349519 -11.6404314 24.00916576 C-11.64781317 22.48652299 -11.66222829 20.96389729 -11.68384266 19.44139004 C-11.71295021 17.3058242 -11.71687563 15.17156521 -11.71502399 13.03583241 C-11.72390644 11.82115788 -11.73278889 10.60648335 -11.7419405 9.3550005 C-11.16786925 5.5111597 -9.95900669 3.87674192 -7.26092243 1.13422108 C-4.69437595 -0.14905216 -2.87513089 0.00527591 0 0 Z " fill="#FFA800" transform="translate(176.2609224319458,12.865778923034668)"/>
<path d="M0 0 C5.61931863 3.37159118 5.61931863 3.37159118 8.05078125 5.890625 C8.58026367 6.43170898 9.10974609 6.97279297 9.65527344 7.53027344 C10.2021582 8.0977832 10.74904297 8.66529297 11.3125 9.25 C15.44283635 13.46382434 19.60805099 17.50767353 24.109375 21.328125 C27.14376487 24.01142844 29.93766937 26.92996621 32.78125 29.8125 C34.79430632 31.79720342 36.85446403 33.66096916 39 35.5 C42.79358733 38.75164628 46.27392647 42.25713094 49.78125 45.8125 C51.79430632 47.79720342 53.85446403 49.66096916 56 51.5 C56.60405607 52.03855999 57.20811214 52.57711998 57.83047295 53.13199997 C59.97342297 55.03232959 59.97342297 55.03232959 62.32066536 56.66746902 C66.43803505 59.99558284 68.68904427 62.56619256 69.82882309 67.82167816 C70.26090695 72.64145127 70.17199517 77.45852613 70.10107422 82.29199219 C70.10672703 84.14726781 70.11627063 86.00253502 70.12939453 87.85777283 C70.15326178 92.87667347 70.12106224 97.89377779 70.07720327 102.91248608 C70.03943716 108.16985367 70.04893072 113.42715856 70.05203247 118.68463135 C70.05010849 127.50799275 70.01305465 136.3306574 69.95361328 145.15380859 C69.8851897 155.35435338 69.86594976 165.55405549 69.8743819 175.75480723 C69.88190581 185.57454246 69.86095153 195.39399487 69.82483292 205.21366119 C69.80959883 209.39060943 69.80322368 213.56743268 69.80373764 217.74440765 C69.80260749 222.6596758 69.77619469 227.5741827 69.73017883 232.4892292 C69.71717218 234.29315915 69.71263259 236.09717285 69.71715164 237.90114403 C69.72184618 240.3629554 69.69580449 242.82258073 69.66183472 245.28411865 C69.67025985 245.9988046 69.67868498 246.71349054 69.68736541 247.44983363 C69.55179975 253.2444371 68.60863027 253.39136973 64 258 C42.88 258 21.76 258 0 258 C0 172.86 0 87.72 0 0 Z " fill="#FF8400" transform="translate(430,166)"/>
<path d="M0 0 C7.25145911 5.72767652 13.68179099 12.52354705 20.1965332 19.06616211 C21.69304925 20.56806925 23.194883 22.06451062 24.69726562 23.56054688 C25.67740426 24.54134606 26.65723279 25.52245526 27.63671875 26.50390625 C28.49998779 27.36830322 29.36325684 28.2327002 30.25268555 29.12329102 C32.26990905 31.23552282 34.16129354 33.35155803 36.04753113 35.57331848 C40.41614619 40.57740036 45.18105159 45.12390652 49.98681641 49.70361328 C52.01404408 51.64610974 54.03884747 53.59112778 56.06387329 55.53591919 C56.59247586 56.0429844 57.12107842 56.55004961 57.66569924 57.07248044 C64.49765492 63.63062119 71.26980985 70.25028265 78.04244542 76.86958146 C84.61264358 83.29096989 91.20043276 89.69087418 97.85546875 96.02441406 C103.16568488 101.07831089 108.42816238 106.17697212 113.6419214 111.33037937 C116.39074015 114.04422314 119.1559771 116.73270331 121.98051834 119.36783218 C137.67588299 134.04846 144.28798971 145.75627559 145.72709274 167.53173447 C146.0893131 172.13504328 146.81799735 176.6485294 147.58129311 181.20002937 C148.13545397 184.90580581 148.28207561 188.2624981 148 192 C146 194 146 194 143.80247498 194.01679993 C142.87177689 193.91111191 141.9410788 193.80542389 140.98217773 193.6965332 C137.31101821 193.30909149 133.6685788 192.96427068 129.97976685 192.84164429 C104.95764645 191.94625231 90.38288032 185.17257725 73.17812538 167.03970146 C70.5533792 164.218199 67.97759605 161.35452962 65.40490723 158.4855957 C62.08536361 154.81900046 58.6740533 151.23994549 55.26757812 147.65429688 C51.44539271 143.62541497 47.63297361 139.59118473 43.89219666 135.48640442 C43.32861954 134.87049942 42.76504242 134.25459442 42.18438721 133.62002563 C41.14140852 132.47734612 40.10324353 131.33024456 39.07112122 130.17774963 C36.26034143 127.10417609 33.54366958 125.1237854 30 123 C27.60054565 120.90347341 25.36564587 118.6492065 23.11767578 116.39233398 C22.44543976 115.72520889 21.77320374 115.0580838 21.08059692 114.3707428 C18.86364611 112.16767006 16.6541817 109.95726728 14.4453125 107.74609375 C12.90002996 106.2047007 11.35452483 104.66353077 9.80880737 103.12257385 C6.56915009 99.89037615 3.33339268 96.6543331 0.10009766 93.41577148 C-4.02587983 89.28401702 -8.16306907 85.16369991 -12.30354118 81.04647732 C-15.5002903 77.86452994 -18.69001097 74.67560752 -21.87781143 71.48469734 C-23.39916361 69.96385571 -24.92285568 68.44535078 -26.44900131 66.92931938 C-49.08603533 44.423889 -49.08603533 44.423889 -49.38037109 31.24023438 C-49.36152152 24.03627024 -48.97315692 18.19564157 -45 12 C-44.5875 11.30519531 -44.175 10.61039063 -43.75 9.89453125 C-39.27970422 3.12558907 -32.65754764 -1.1689235 -24.875 -3.375 C-16.03215439 -4.80126542 -8.13423902 -4.03120676 0 0 Z " fill="#3EC4C1" transform="translate(62,103)"/>
<path d="M0 0 C6.28389868 5.2310748 12.14521889 10.86003379 18.01245117 16.54980469 C19.11040439 17.61196273 20.20838175 18.67409583 21.30638123 19.73620605 C31.31221927 29.42548148 41.25374575 39.1804932 51.17663097 48.95463181 C57.83129588 55.50712398 64.50510943 62.03737872 71.23120117 68.51660156 C77.12178608 74.19103877 82.97135232 79.90431941 88.77664739 85.66603017 C91.84054934 88.7043662 94.91981547 91.72138394 98.04909325 94.69246674 C111.84830879 107.82157294 121.90534405 118.14610799 122.82051086 138.26080322 C122.85016906 139.70174976 122.85016906 139.70174976 122.88042641 141.17180634 C123.06731598 145.59217949 123.91933291 149.85162983 124.75 154.1875 C127.92319878 174.04462117 127.92319878 174.04462117 124.828125 180.41015625 C122.15673416 183.76316485 119.24855067 186.11076846 115 187 C108.36322915 187.37918495 101.99503576 186.58075302 95.453125 185.5390625 C94.47889587 185.38843353 93.50466675 185.23780457 92.50091553 185.08261108 C90.45663284 184.76478417 88.41287292 184.44357792 86.36962891 184.11914062 C83.24654224 183.6244523 80.1215472 183.14354383 76.99609375 182.6640625 C75.00247605 182.35238086 73.00898181 182.03990831 71.015625 181.7265625 C70.08534485 181.58376862 69.1550647 181.44097473 68.19659424 181.29385376 C66.8893338 181.08386246 66.8893338 181.08386246 65.55566406 180.86962891 C64.7944928 180.74971588 64.03332153 180.62980286 63.24908447 180.5062561 C57.70363512 179.25800704 54.4266697 176.85148365 50.50708008 172.83178711 C49.98286972 172.30640854 49.45865936 171.78102997 48.91856384 171.23973083 C47.19513973 169.50914432 45.48247853 167.76829546 43.76953125 166.02734375 C42.57150551 164.82117883 41.37273855 163.61574971 40.17326355 162.411026 C37.02262965 159.24329714 33.88067872 156.06710084 30.74090576 152.88861084 C25.70694525 147.7953804 20.6601686 142.71485541 15.61289024 137.63482857 C13.84967904 135.85763152 12.09032114 134.0766886 10.33149719 132.29515076 C9.25599208 131.20962553 8.18040938 130.12417717 7.10473633 129.03881836 C6.61484222 128.54061584 6.12494812 128.04241333 5.62020874 127.52911377 C3.06102671 124.93358941 3.06102671 124.93358941 0 123 C0 117.72 0 112.44 0 107 C4.04315167 109.02157584 6.25976129 111.22124453 9.15600586 114.53198242 C10.2027898 115.70296251 11.25053058 116.87308775 12.29908752 118.04248047 C12.85355623 118.66338562 13.40802494 119.28429077 13.97929573 119.92401123 C46.40643278 158.63103222 46.40643278 158.63103222 91.756073 175.37850952 C97.22235798 175.62905281 102.54886687 175.4255492 108 175 C108.97469238 175.00942627 109.94938477 175.01885254 110.95361328 175.02856445 C112.99448682 175.23790276 112.99448682 175.23790276 114 174 C114.23492005 168.14705281 113.66421506 162.63744317 112.7578125 156.86328125 C112.62937958 156.02081345 112.50094666 155.17834564 112.36862183 154.31034851 C112.09749667 152.54262517 111.82337558 150.77535895 111.54638672 149.00854492 C111.12477126 146.31103654 110.71608251 143.61178372 110.30859375 140.91210938 C110.04243793 139.1873808 109.77553655 137.46276709 109.5078125 135.73828125 C109.32643234 134.53501945 109.32643234 134.53501945 109.14138794 133.30744934 C109.02141449 132.5528392 108.90144104 131.79822906 108.77783203 131.02075195 C108.62460983 130.03435478 108.62460983 130.03435478 108.46829224 129.0280304 C107.31553779 124.03580359 105.40702696 121.04306555 101.73532104 117.48222351 C100.39334656 116.16874687 100.39334656 116.16874687 99.02426147 114.82873535 C98.03040965 113.87101573 97.03648003 112.91337683 96.04248047 111.95581055 C94.99710591 110.93748904 93.95250851 109.91836922 92.90863037 108.89851379 C90.66186291 106.70523516 88.41115923 104.51610244 86.15777206 102.32962608 C82.59015805 98.86483205 79.0410909 95.38145352 75.49612427 91.89350891 C74.89690025 91.30409521 74.29767624 90.71468151 73.68029392 90.1074068 C72.45503739 88.90217206 71.2298155 87.69690213 70.00462747 86.49159777 C61.75339328 78.37613736 53.48981548 70.27413021 45.17822266 62.22045898 C39.56752372 56.78358854 33.98612053 51.31842901 28.43615258 45.81955749 C25.50127077 42.91400481 22.55371767 40.02469482 19.5696373 37.16962242 C16.75845191 34.47958959 13.98762161 31.75364424 11.24196625 28.99680901 C10.23355843 27.99752061 9.21155419 27.0117201 8.17487717 26.04179001 C3.65335821 21.79855231 -0.04291098 18.08821429 -0.59164047 11.72718239 C-0.69943298 7.77944872 -0.43191385 3.92282666 0 0 Z " fill="#FDA902" transform="translate(95,121)"/>
<path d="M0 0 C1.09950773 0.93841676 2.19843213 1.87751701 3.29711914 2.81689453 C3.90914688 3.33978058 4.52117462 3.86266663 5.15174866 4.40139771 C7.96644282 6.83590238 10.7069112 9.34695373 13.4375 11.875 C14.00170654 12.39602295 14.56591309 12.9170459 15.1472168 13.45385742 C18.91906131 16.95339 22.57545683 20.54644567 26.18359375 24.21484375 C28.01952426 26.01918836 29.92055194 27.70031389 31.875 29.375 C35.06682509 32.11621449 38.04302977 35.00685888 41 38 C43.91626603 40.95183025 46.84605835 43.80388859 50 46.5 C54.07343481 49.98212976 57.79035118 53.77555426 61.5546875 57.5859375 C64.28184909 60.27824719 67.13107518 62.77306444 70.0390625 65.265625 C73.51507047 68.34002248 76.86296094 71.57929251 80 75 C80 75.33 80 75.66 80 76 C70.43801728 76.09272506 60.87618958 76.16377752 51.31385517 76.20724869 C46.87354451 76.2281139 42.4335417 76.25641177 37.9934082 76.30175781 C33.70752631 76.34525406 29.42194032 76.36914513 25.13585472 76.37950897 C23.50157196 76.3868936 21.86730519 76.40131425 20.23314857 76.42292023 C17.94194306 76.45200559 15.65195645 76.45595403 13.3605957 76.45410156 C11.40534721 76.46742523 11.40534721 76.46742523 9.41059875 76.48101807 C5.42044448 75.91826166 3.78742327 74.86253705 1 72 C-0.14346098 68.56961706 -0.120116 65.9436825 -0.11352539 62.32543945 C-0.11367142 61.652005 -0.11381744 60.97857056 -0.1139679 60.284729 C-0.11327175 58.06088021 -0.10549332 55.83711539 -0.09765625 53.61328125 C-0.09579101 52.07057236 -0.09436761 50.52786289 -0.09336853 48.9851532 C-0.08955169 44.92616132 -0.07972851 40.86720527 -0.06866455 36.80822754 C-0.05843252 32.66577641 -0.05386707 28.5233195 -0.04882812 24.38085938 C-0.03810551 16.25388982 -0.02103907 8.12694937 0 0 Z " fill="#FFFEFD" transform="translate(348,88)"/>
<path d="M0 0 C1.28018231 -0.00874829 1.28018231 -0.00874829 2.58622688 -0.01767331 C3.52415126 -0.01389399 4.46207564 -0.01011467 5.42842197 -0.00622082 C6.42454976 -0.01004636 7.42067755 -0.01387191 8.44699103 -0.01781338 C11.80035646 -0.02817045 15.15355154 -0.02414609 18.50692844 -0.02018261 C20.90479282 -0.02452758 23.3026558 -0.02971 25.7005167 -0.03567028 C31.54687684 -0.04769886 37.39319439 -0.05020889 43.23956221 -0.04787002 C47.99060623 -0.04608857 52.74163629 -0.04783277 57.49267864 -0.05209446 C58.16830542 -0.05268965 58.8439322 -0.05328484 59.54003252 -0.05389806 C60.912473 -0.05510979 62.28491347 -0.05632392 63.65735395 -0.05754044 C76.53456153 -0.06842243 89.41174294 -0.06625037 102.288952 -0.06015559 C114.07456974 -0.05498582 125.86010484 -0.06624227 137.64570623 -0.08525381 C149.74148109 -0.10461642 161.83721683 -0.11289099 173.9330073 -0.10913056 C180.72615309 -0.10721611 187.51922854 -0.10972968 194.31236172 -0.1238451 C200.69891171 -0.13698114 207.08533743 -0.13452033 213.47188854 -0.12143421 C215.81970748 -0.11905946 218.16753793 -0.12183505 220.51534367 -0.13005733 C223.71288322 -0.14045046 226.90985836 -0.1324839 230.10737705 -0.11974621 C231.04307071 -0.12712049 231.97876437 -0.13449478 232.94281238 -0.14209253 C239.24333564 -0.08905319 239.24333564 -0.08905319 242.43914223 1.77786446 C243.12830554 2.50878697 243.12830554 2.50878697 243.83139133 3.25447559 C242.95639133 10.12947559 242.95639133 10.12947559 241.83139133 11.25447559 C238.66535048 11.35923115 235.52091723 11.39778732 232.354249 11.39491749 C230.84318626 11.39937417 230.84318626 11.39937417 229.301597 11.40392089 C225.89827152 11.41264948 222.49498105 11.41411963 219.09164524 11.41560841 C216.66289793 11.42023362 214.23415134 11.42525787 211.80540562 11.43065357 C205.18770669 11.44380765 198.57001508 11.45026458 191.95230627 11.45466423 C187.82299419 11.45742349 183.69368446 11.46166026 179.56437397 11.4661684 C168.13968204 11.47836362 156.714992 11.48866239 145.29029369 11.4920435 C144.55858352 11.49226306 143.82687335 11.49248263 143.07299014 11.49270885 C142.33949247 11.49292712 141.60599479 11.4931454 140.85026991 11.49337029 C139.36383382 11.49381377 137.87739773 11.49426033 136.39096165 11.49470997 C135.65363223 11.4949314 134.91630282 11.49515283 134.15663008 11.49538097 C122.20531804 11.4993302 110.25406693 11.5167869 98.30277844 11.54006949 C86.04322532 11.56376055 73.7837028 11.57624432 61.52412641 11.57741141 C54.63652028 11.57832945 47.74899351 11.58411396 40.86140919 11.60223103 C34.38543419 11.6192049 27.90956987 11.62090146 21.43357754 11.61209202 C19.05147302 11.61131788 16.6693606 11.61571346 14.28727627 11.62555027 C11.04550146 11.63815615 7.80427099 11.63245504 4.56250095 11.62196827 C3.61085737 11.63002467 2.65921378 11.63808108 1.67873251 11.64638162 C0.81297736 11.63979177 -0.05277779 11.63320193 -0.94476795 11.62641239 C-1.69341409 11.62700948 -2.44206023 11.62760657 -3.21339262 11.62822175 C-5.74421156 11.14444715 -6.65328254 10.31261919 -8.16860867 8.25447559 C-8.04360867 5.19197559 -8.04360867 5.19197559 -7.16860867 2.25447559 C-4.09004207 0.20209786 -3.47122073 0.00407745 0 0 Z " fill="#FFFEFA" transform="translate(141.1686086654663,412.7455244064331)"/>
<path d="M0 0 C0.86103836 -0.00782324 1.72207672 -0.01564648 2.60920715 -0.02370679 C4.02878975 -0.01366855 4.02878975 -0.01366855 5.47705078 -0.00342751 C6.48205124 -0.00810748 7.4870517 -0.01278745 8.52250671 -0.01760924 C11.90592462 -0.02962013 15.28894203 -0.0200781 18.67236328 -0.01066017 C21.09155515 -0.01472316 23.51074516 -0.02006349 25.92993164 -0.02659035 C31.82811799 -0.03887667 37.72619949 -0.03704128 43.62438297 -0.02835242 C48.41691592 -0.02158396 53.20941677 -0.02065552 58.00195312 -0.02392387 C58.68341935 -0.02438357 59.36488558 -0.02484327 60.0670023 -0.0253169 C61.45128251 -0.02627605 62.83556272 -0.02724869 64.21984291 -0.02823468 C77.20767576 -0.0367943 90.19544515 -0.02694548 103.18326759 -0.01083358 C114.33331045 0.00257014 125.48325962 0.00024221 136.63330078 -0.01358986 C149.5738835 -0.02963559 162.51441056 -0.03597027 175.45500183 -0.02675307 C176.83425902 -0.0257974 178.21351623 -0.02485428 179.59277344 -0.02392387 C180.27143746 -0.02346105 180.95010149 -0.02299822 181.64933109 -0.02252137 C186.43745825 -0.01992845 191.22555017 -0.02430896 196.01367188 -0.03136253 C202.45522015 -0.04064302 208.89663281 -0.03405872 215.33816528 -0.01667976 C217.70736394 -0.01270074 220.07657745 -0.01387299 222.44577026 -0.02046776 C225.66994299 -0.02861739 228.89354013 -0.01844129 232.11767578 -0.00342751 C233.06406418 -0.01011967 234.01045258 -0.01681184 234.98551941 -0.02370679 C236.27707695 -0.01197193 236.27707695 -0.01197193 237.59472656 0 C238.33925079 0.00048706 239.08377502 0.00097411 239.8508606 0.00147593 C242.36019909 0.48625844 243.2517883 1.37606005 244.79736328 3.37752342 C245.17236328 5.87752342 245.17236328 5.87752342 244.79736328 8.37752342 C243.2517883 10.37898679 242.36019909 11.26878841 239.8508606 11.75357091 C238.73407425 11.7543015 238.73407425 11.7543015 237.59472656 11.75504684 C236.30316902 11.76678171 236.30316902 11.76678171 234.98551941 11.77875364 C234.03913101 11.77206147 233.09274261 11.76536931 232.11767578 11.75847435 C231.11267532 11.76315432 230.10767487 11.76783429 229.07221985 11.77265608 C225.68880194 11.78466697 222.30578453 11.77512495 218.92236328 11.76570702 C216.50317141 11.76977 214.0839814 11.77511034 211.66479492 11.78163719 C205.76660857 11.79392351 199.86852707 11.79208812 193.97034359 11.78339927 C189.17781064 11.7766308 184.38530979 11.77570237 179.59277344 11.77897072 C178.91130721 11.77943042 178.22984098 11.77989012 177.52772427 11.78036375 C176.14344405 11.7813229 174.75916385 11.78229554 173.37488365 11.78328152 C160.3870508 11.79184114 147.39928141 11.78199233 134.41145897 11.76588042 C123.26141611 11.7524767 112.11146695 11.75480464 100.96142578 11.7686367 C88.02084306 11.78468244 75.08031601 11.79101712 62.13972473 11.78179991 C60.76046754 11.78084424 59.38121034 11.77990113 58.00195312 11.77897072 C57.3232891 11.77850789 56.64462507 11.77804507 55.94539547 11.77756821 C51.15726831 11.77497529 46.36917639 11.7793558 41.58105469 11.78640938 C35.13950641 11.79568987 28.69809375 11.78910557 22.25656128 11.77172661 C19.88736262 11.76774758 17.51814912 11.76891983 15.1489563 11.7755146 C11.92478357 11.78366424 8.70118644 11.77348814 5.47705078 11.75847435 C4.05746819 11.7685126 4.05746819 11.7685126 2.60920715 11.77875364 C1.74816879 11.7709304 0.88713043 11.76310715 0 11.75504684 C-0.74452423 11.75455979 -1.48904846 11.75407273 -2.25613403 11.75357091 C-4.76547253 11.26878841 -5.65706174 10.37898679 -7.20263672 8.37752342 C-7.57763672 5.87752342 -7.57763672 5.87752342 -7.20263672 3.37752342 C-5.00811078 0.53569217 -3.53955493 0.00231553 0 0 Z " fill="#FFFEFE" transform="translate(140.20263671875,381.6224765777588)"/>
<path d="M0 0 C0.86103836 -0.00782324 1.72207672 -0.01564648 2.60920715 -0.02370679 C4.02878975 -0.01366855 4.02878975 -0.01366855 5.47705078 -0.00342751 C6.48205124 -0.00810748 7.4870517 -0.01278745 8.52250671 -0.01760924 C11.90592462 -0.02962013 15.28894203 -0.0200781 18.67236328 -0.01066017 C21.09155515 -0.01472316 23.51074516 -0.02006349 25.92993164 -0.02659035 C31.82811799 -0.03887667 37.72619949 -0.03704128 43.62438297 -0.02835242 C48.41691592 -0.02158396 53.20941677 -0.02065552 58.00195312 -0.02392387 C58.68341935 -0.02438357 59.36488558 -0.02484327 60.0670023 -0.0253169 C61.45128251 -0.02627605 62.83556272 -0.02724869 64.21984291 -0.02823468 C77.20767576 -0.0367943 90.19544515 -0.02694548 103.18326759 -0.01083358 C114.33331045 0.00257014 125.48325962 0.00024221 136.63330078 -0.01358986 C149.5738835 -0.02963559 162.51441056 -0.03597027 175.45500183 -0.02675307 C176.83425902 -0.0257974 178.21351623 -0.02485428 179.59277344 -0.02392387 C180.27143746 -0.02346105 180.95010149 -0.02299822 181.64933109 -0.02252137 C186.43745825 -0.01992845 191.22555017 -0.02430896 196.01367188 -0.03136253 C202.45522015 -0.04064302 208.89663281 -0.03405872 215.33816528 -0.01667976 C217.70736394 -0.01270074 220.07657745 -0.01387299 222.44577026 -0.02046776 C225.66994299 -0.02861739 228.89354013 -0.01844129 232.11767578 -0.00342751 C233.06406418 -0.01011967 234.01045258 -0.01681184 234.98551941 -0.02370679 C236.27707695 -0.01197193 236.27707695 -0.01197193 237.59472656 0 C238.33925079 0.00048706 239.08377502 0.00097411 239.8508606 0.00147593 C242.36019909 0.48625844 243.2517883 1.37606005 244.79736328 3.37752342 C245.17236328 5.87752342 245.17236328 5.87752342 244.79736328 8.37752342 C243.2517883 10.37898679 242.36019909 11.26878841 239.8508606 11.75357091 C238.73407425 11.7543015 238.73407425 11.7543015 237.59472656 11.75504684 C236.30316902 11.76678171 236.30316902 11.76678171 234.98551941 11.77875364 C234.03913101 11.77206147 233.09274261 11.76536931 232.11767578 11.75847435 C231.11267532 11.76315432 230.10767487 11.76783429 229.07221985 11.77265608 C225.68880194 11.78466697 222.30578453 11.77512495 218.92236328 11.76570702 C216.50317141 11.76977 214.0839814 11.77511034 211.66479492 11.78163719 C205.76660857 11.79392351 199.86852707 11.79208812 193.97034359 11.78339927 C189.17781064 11.7766308 184.38530979 11.77570237 179.59277344 11.77897072 C178.91130721 11.77943042 178.22984098 11.77989012 177.52772427 11.78036375 C176.14344405 11.7813229 174.75916385 11.78229554 173.37488365 11.78328152 C160.3870508 11.79184114 147.39928141 11.78199233 134.41145897 11.76588042 C123.26141611 11.7524767 112.11146695 11.75480464 100.96142578 11.7686367 C88.02084306 11.78468244 75.08031601 11.79101712 62.13972473 11.78179991 C60.76046754 11.78084424 59.38121034 11.77990113 58.00195312 11.77897072 C57.3232891 11.77850789 56.64462507 11.77804507 55.94539547 11.77756821 C51.15726831 11.77497529 46.36917639 11.7793558 41.58105469 11.78640938 C35.13950641 11.79568987 28.69809375 11.78910557 22.25656128 11.77172661 C19.88736262 11.76774758 17.51814912 11.76891983 15.1489563 11.7755146 C11.92478357 11.78366424 8.70118644 11.77348814 5.47705078 11.75847435 C4.05746819 11.7685126 4.05746819 11.7685126 2.60920715 11.77875364 C1.74816879 11.7709304 0.88713043 11.76310715 0 11.75504684 C-0.74452423 11.75455979 -1.48904846 11.75407273 -2.25613403 11.75357091 C-4.76547253 11.26878841 -5.65706174 10.37898679 -7.20263672 8.37752342 C-7.57763672 5.87752342 -7.57763672 5.87752342 -7.20263672 3.37752342 C-5.00811078 0.53569217 -3.53955493 0.00231553 0 0 Z " fill="#FFFEFE" transform="translate(140.20263671875,350.6224765777588)"/>
<path d="M0 0 C2.47802618 3.71703927 2.86443304 7.21991638 3.5078125 11.54296875 C3.70333206 12.80661003 3.70333206 12.80661003 3.90280151 14.09577942 C4.1769625 15.87978454 4.44738627 17.66436739 4.71435547 19.44946289 C5.12107398 22.16132263 5.54201815 24.87068862 5.96484375 27.58007812 C6.2300268 29.31757727 6.49437615 31.05520391 6.7578125 32.79296875 C6.94526535 33.99653267 6.94526535 33.99653267 7.13650513 35.22441101 C7.87107319 40.20378286 8.28742368 44.96523742 8 50 C6 52 6 52 3.87402344 52.08422852 C-6.06671301 51.12123065 -15.89593794 49.53712553 -25.75 47.9375 C-27.52597596 47.65258494 -29.30201724 47.36807667 -31.078125 47.08398438 C-35.3861833 46.39400628 -39.69332268 45.69854383 -44 45 C-39.31179066 39.36431339 -34.30014592 34.16896034 -29.1015625 29.00390625 C-28.26660248 28.17036118 -27.43164246 27.3368161 -26.57138062 26.47801208 C-23.92494152 23.83713476 -21.27503241 21.19977104 -18.625 18.5625 C-16.82138357 16.76390351 -15.01799575 14.96507773 -13.21484375 13.16601562 C-8.81253739 8.77468752 -4.40738286 4.38623271 0 0 Z " fill="#FEFEFC" transform="translate(202,245)"/>
<path d="M0 0 C1.796875 0.171875 1.796875 0.171875 4 1 C5.640625 3.328125 5.640625 3.328125 7.25 6.25 C10.45445718 11.56319675 13.44864228 14.35595127 19 17 C20.10794922 17.55494141 20.10794922 17.55494141 21.23828125 18.12109375 C22.11033203 18.55615234 22.11033203 18.55615234 23 19 C23 20.65 23 22.3 23 24 C21.91332031 24.49306641 21.91332031 24.49306641 20.8046875 24.99609375 C11.95876499 29.34828763 8.24695921 34.34951165 4 43 C1.66796875 42.82421875 1.66796875 42.82421875 -1 42 C-2.44921875 39.70703125 -2.44921875 39.70703125 -3.6875 36.8125 C-6.82818362 30.50653211 -10.74746383 27.94633899 -17 25 C-17.66 24.67 -18.32 24.34 -19 24 C-19 22.35 -19 20.7 -19 19 C-18.26394531 18.64808594 -17.52789062 18.29617187 -16.76953125 17.93359375 C-7.77773477 13.38424362 -4.18396178 9.0285491 0 0 Z " fill="#3EC4C1" transform="translate(32,13)"/>
</svg>
